<svg viewBox="0 0 50 50" xmlns="http://www.w3.org/2000/svg"><path d="m14.06 43.23-3.64 2.43-8.51-15.8 3.65-2.43z" fill="#01c6a5"/><path d="m37.09 8.97c-.42-2.67-2.5-4.67-4.86-4.63-2.66.04-4.8 2.53-4.8 5.6 0-3.05-2.13-5.54-4.77-5.6-2.36-.05-4.45 1.93-4.88 4.59-.4 2.44.9 4.16 2.36 5.86 1.56 1.81 7.29 7.78 7.29 7.78s5.31-5.58 7.29-7.78c1.38-1.53 2.74-3.39 2.36-5.82z" fill="#01c6a5"/><path d="m48.81 31.94c-.53-1.3-2.07-2.04-3.46-1.7l-8.59 1.83c-.38-1.78-1.97-3.12-3.86-3.12h-7.59l-.79-.6c-4.3-3.22-10.28-3.93-15.21-1.8l-2.58 1.12-.36-.68c-.12-.23-.33-.39-.58-.45s-.51-.02-.73.13l-3.65 2.43c-.39.26-.52.78-.3 1.19l8.51 15.8c.12.23.33.39.58.45.07.02.15.03.22.03.18 0 .35-.05.51-.15l3.65-2.43c.26-.17.39-.46.39-.76l.76.23c1.94.49 3.58.68 5.63.68 3.22 0 6.54-.56 9.16-1.54l16.67-7.02c1.27-.68 2.24-2.15 1.63-3.64zm-38.06 12.4-7.64-14.18 2.12-1.42 7.64 14.18zm35.65-10.41-16.56 6.97c-2.39.9-5.48 1.41-8.49 1.41-1.92 0-3.38-.18-5.15-.62l-1.88-.56c-.12-.04-.25-.04-.37-.03l-6.36-11.82 2.44-1.05c4.34-1.88 9.61-1.26 13.39 1.58l1.04.78c.16.12.35.18.55.18h7.9c1.17 0 2.13.95 2.13 2.13s-.95 2.13-2.13 2.13h-11.54c-.5 0-.91.41-.91.91s.41.91.91.91h11.54c1.81 0 3.32-1.23 3.79-2.9l9.07-1.93c.54-.13 1.18.15 1.37.62.22.54-.37 1.11-.73 1.3zm-19.63-10.74c.17.18.41.28.66.28.25 0 .49-.1.66-.28.05-.06 5.34-5.61 7.31-7.8 1.52-1.69 3.02-3.79 2.59-6.57-.49-3.12-2.97-5.47-5.77-5.4-2 .03-3.77 1.23-4.78 3.02-1.01-1.77-2.76-2.97-4.75-3.02-2.83-.03-5.29 2.24-5.8 5.36-.46 2.82 1.02 4.81 2.57 6.6 1.56 1.8 7.08 7.57 7.32 7.81zm-8.09-14.12c.36-2.2 2.02-3.83 3.89-3.83h.07c2.14.05 3.88 2.15 3.88 4.68 0 .5.41.91.91.91s.91-.41.91-.91c0-2.55 1.75-4.65 3.9-4.68h.05c1.88 0 3.55 1.65 3.89 3.86.3 1.9-.64 3.4-2.14 5.07-1.54 1.71-5.13 5.51-6.62 7.07-1.55-1.62-5.38-5.65-6.6-7.05-1.37-1.59-2.48-3.07-2.15-5.11z" fill="#2d2356"/></svg>