<svg viewBox="0 0 50 50" xmlns="http://www.w3.org/2000/svg"><path d="m31.47 25h-2.33c-.61 1.28-2.22 2.21-4.14 2.21s-3.54-.92-4.14-2.21h-2.33c-1.3 0-2.35 1.05-2.35 2.35v14.2h17.66v-14.2c0-1.3-1.05-2.35-2.35-2.35z" fill="#01c6a5"/><path d="m29.41 29.69c-.46 0-.83.37-.83.83v11.03c0 .46.37.83.83.83s.83-.37.83-.83v-11.03c0-.46-.37-.83-.83-.83zm-8.83 0c-.46 0-.83.37-.83.83v11.03c0 .46.37.83.83.83s.83-.37.83-.83v-11.03c0-.46-.37-.83-.83-.83zm-15.45 2.21c-.46 0-.83.37-.83.83v8.83c0 .46.37.83.83.83s.83-.37.83-.83v-8.83c0-.46-.37-.83-.83-.83zm39.72 0c-.46 0-.83.37-.83.83v8.83c0 .46.37.83.83.83s.83-.37.83-.83v-8.83c0-.46-.37-.83-.83-.83zm1.72-4.41h-3.1v-1.24c1.32-.81 2.21-2.25 2.21-3.9v-7.41c0-1.6-1.3-2.9-2.9-2.9h-5.78c-1.6 0-2.9 1.3-2.9 2.9v7.41c0 1.66.89 3.09 2.21 3.9v1.24h-1.38c-.1 0-.19.02-.28.06v-.18c0-1.75-1.43-3.18-3.18-3.18h-2.34v-1.36c1.33-.87 2.21-2.37 2.21-4.07v-8.04c0-1.71-1.39-3.1-3.1-3.1h-6.49c-1.71 0-3.1 1.39-3.1 3.1v8.02c0 1.7.88 3.2 2.21 4.07v1.36h-2.34c-1.75 0-3.18 1.43-3.18 3.18v.18c-.09-.03-.18-.06-.28-.06h-1.38v-1.24c1.32-.81 2.21-2.25 2.21-3.9v-7.41c0-1.6-1.3-2.9-2.9-2.9h-5.78c-1.6 0-2.9 1.3-2.9 2.9v7.41c0 1.66.89 3.09 2.21 3.9v1.24h-3.1c-1.33 0-2.42 1.09-2.42 2.42v11.65c0 .46.37.83.83.83s.83-.37.83-.83v-11.65c0-.42.34-.77.77-.77h2.86c.93 1.28 2.29 2.01 3.72 2.01 1.33 0 2.57-.61 3.5-1.72.07-.09.12-.18.15-.28h1.42c.1 0 .19-.02.28-.06v12.47c0 .46.37.83.83.83s.83-.37.83-.83v-14.2c0-.84.68-1.53 1.53-1.53h2.1c.03.06.06.12.11.17 1.07 1.14 2.48 1.77 3.98 1.77s3.06-.71 4.13-1.95h2.63c.84 0 1.53.68 1.53 1.53v14.2c0 .46.37.83.83.83s.83-.37.83-.83v-12.47c.09.03.18.06.28.06h1.42c.03.1.08.2.15.28.93 1.11 2.17 1.72 3.5 1.72 1.43 0 2.78-.73 3.72-2h2.86c.42 0 .77.34.77.76v11.65c0 .46.37.83.83.83s.83-.37.83-.83v-11.65c0-1.33-1.09-2.42-2.42-2.42zm-40.6-12.55c0-.69.56-1.25 1.25-1.25h5.78c.69 0 1.25.56 1.25 1.25v1.51h-4.69c-.46 0-.83.37-.83.83v1.38h-2.76zm2.11 13.74c.06-.11.09-.23.09-.36v-1.45c.24.04.48.07.72.07h2.41c.25 0 .49-.04.72-.07v1.45c0 .07.02.13.04.2-1.12 1.18-2.82 1.23-3.99.17zm3.23-3.4h-2.41c-1.62 0-2.93-1.31-2.93-2.93v-2.03h3.59c.46 0 .83-.37.83-.83v-1.38h3.86v4.24c0 1.62-1.31 2.93-2.93 2.93zm9-14.56c0-.8.65-1.44 1.44-1.44h6.49c.8 0 1.44.65 1.44 1.44v1.31h-6.9c-.46 0-.83.37-.83.83v1.38h-1.66v-3.52zm7.17 14.13c-.74.8-1.73 1.27-2.77 1.27-.83 0-1.63-.3-2.3-.83.06-.12.1-.24.1-.36v-1.42c.33.07.67.11 1.02.11h2.93c.35 0 .69-.04 1.02-.11zm-1.02-2.88h-2.93c-1.78 0-3.23-1.45-3.23-3.23v-2.84h2.48c.46 0 .83-.37.83-.83v-1.38h6.07v5.05c0 1.78-1.45 3.23-3.23 3.23zm9.29-7.03c0-.69.56-1.25 1.25-1.25h5.78c.69 0 1.25.56 1.25 1.25v3.72h-3.86v-1.38c0-.46-.37-.83-.83-.83h-3.59zm2.17 13.57c.02-.06.04-.13.04-.2v-1.45c.24.04.48.07.72.07h2.41c.25 0 .49-.04.72-.07v1.45c0 .13.04.25.09.36-1.18 1.06-2.87 1.01-3.99-.17zm3.18-3.23h-2.41c-1.62 0-2.93-1.31-2.93-2.93v-4.24h2.76v1.38c0 .46.37.83.83.83h4.69v2.03c0 1.62-1.31 2.93-2.93 2.93z" fill="#2d2356"/></svg>