<svg viewBox="0 0 50 50" xmlns="http://www.w3.org/2000/svg"><path d="m10.92 42.92h28.16v5.12h-28.16z" fill="#01c6a5"/><path d="m40.04 28.84c0-2.05-1.03-3.86-2.59-4.96 0-.05.03-.1.03-.16v-18.67c0-2.23-1.82-4.05-4.05-4.05h-.23c-2.23 0-4.05 1.82-4.05 4.05v8.09c-.62-.39-1.34-.62-2.13-.62h-.23c-1.24 0-2.34.58-3.09 1.46-.74-.88-1.84-1.46-3.09-1.46h-.23c-.78 0-1.51.23-2.13.62v-4.25c0-2.23-1.82-4.05-4.05-4.05h-.23c-2.23 0-4.05 1.82-4.05 4.05v27.57c0 1.92.39 3.77 1.12 5.51h-.16c-.53 0-.96.43-.96.96v5.12c0 .53.43.96.96.96s.96-.43.96-.96v-4.16h26.24v4.16c0 .53.43.96.96.96s.96-.43.96-.96v-5.12c0-.53-.43-.96-.96-.96h-.26c.79-1.84 1.22-3.83 1.22-5.83v-7.29zm-8.96-23.79c0-1.17.95-2.13 2.13-2.13h.23c1.17 0 2.13.95 2.13 2.13v17.95c-.51-.14-1.04-.24-1.6-.24h-2.88v-17.71zm-6.4 11.52c0-1.17.95-2.13 2.13-2.13h.23c1.17 0 2.13.95 2.13 2.13v6.19h-4.48v-6.19zm-6.4 0c0-1.17.95-2.13 2.13-2.13h.23c1.17 0 2.13.95 2.13 2.13v6.19h-1.28v2.32c-.31.14-.65.24-1.07.24-1.17 0-2.13-.95-2.13-2.13v-6.63zm19.84 19.57c0 2.02-.49 4.02-1.41 5.83h-23.54c-.86-1.72-1.29-3.57-1.29-5.51v-27.57c0-1.17.95-2.13 2.13-2.13h.23c1.17 0 2.13.95 2.13 2.13v14.83c0 .17.06.33.14.47.45 1.75 2.04 3.05 4.02 3.05.48 0 .94-.08 1.38-.24.74 1.64 2.38 2.8 4.3 2.8h4.24v1.92h-4.16c-3.35 0-6.08 2.73-6.08 6.08 0 .53.43.96.96.96s.96-.43.96-.96c0-2.29 1.87-4.16 4.16-4.16h6.08v-5.76h-6.16c-1.54 0-2.8-1.26-2.8-2.8v-.4h10.56c2.29 0 4.16 1.87 4.16 4.16v7.29z" fill="#2d2356"/></svg>