<svg version="1.0" xmlns="http://www.w3.org/2000/svg" width="600" height="600" viewBox="0 0 300 300" preserveAspectRatio="xMidYMid meet">
  <g transform="translate(0.000000,300.000000) scale(0.2,-0.2)" fill="yellow" stroke="none">
    <path d="M1243 1662 c-37 -4 -45 -27 -13 -37 19 -6 20 -15 20 -130 0 -100 -3 -124 -15 -129 -33 -12 -12 -26 40 -26 55 0 70 11 39 28 -17 10 -16 63 2 69 6 2 26 -19 45 -47 31 -45 38 -50 72 -50 20 0 37 2 37 6 0 3 -27 30 -60 61 -33 30 -60 58 -60 62 1 3 23 24 50 46 28 22 50 43 50 46 0 3 -22 6 -50 6 -50 1 -63 -9 -35 -24 12 -7 8 -16 -25 -48 l-40 -39 0 96 c0 106 -5 115 -57 110z"/>
    <path d="M1527 1654 c-4 -4 -7 -18 -7 -31 0 -21 4 -24 28 -21 21 2 27 8 27 28 0 18 -6 26 -20 28 -12 2 -24 0 -28 -4z"/>
    <path d="M2219 1610 l-46 -49 -13 24 c-11 21 -21 25 -62 25 -26 0 -48 -2 -48 -5 0 -4 57 -96 77 -124 5 -6 173 161 173 171 0 23 -39 2 -81 -42z m-79 -42 c0 -7 -4 -19 -9 -26 -7 -11 -10 -10 -15 3 -10 26 -7 35 9 35 8 0 15 -6 15 -12z"/>
    <path d="M708 1633 c21 -15 22 -22 22 -135 0 -112 -1 -121 -22 -139 -23 -18 -23 -18 40 -19 59 0 82 13 47 26 -11 5 -15 22 -15 65 l0 59 70 0 70 0 0 -59 c0 -50 -3 -59 -20 -64 -43 -11 -19 -27 40 -27 58 0 79 13 42 24 -17 6 -19 18 -18 134 1 112 3 127 19 130 40 8 12 22 -43 22 -58 0 -80 -12 -40 -23 17 -4 20 -14 20 -56 l0 -51 -70 0 -70 0 0 55 c0 42 3 55 15 55 8 0 15 5 15 10 0 6 -27 10 -62 9 -60 0 -62 -1 -40 -16z"/>
    <path d="M1085 1565 c-5 -2 -22 -6 -37 -9 -19 -4 -28 -13 -28 -27 0 -22 31 -40 38 -21 14 42 82 31 82 -13 0 -24 -6 -28 -68 -40 -42 -9 -62 -29 -62 -64 0 -48 51 -69 106 -46 20 8 36 10 39 4 4 -5 15 -9 27 -9 16 0 18 4 12 18 -4 9 -10 55 -13 102 -6 77 -8 86 -31 97 -24 12 -45 15 -65 8z m55 -148 c0 -30 -18 -47 -51 -47 -50 0 -46 39 6 58 43 15 45 15 45 -11z"/>
    <path d="M1518 1562 c-32 -4 -37 -28 -8 -37 18 -6 20 -15 20 -80 0 -65 -2 -74 -20 -80 -39 -12 -19 -25 40 -25 59 0 79 13 40 25 -18 6 -20 15 -20 100 0 99 -2 103 -52 97z"/>
    <path d="M1653 1563 c-27 -5 -30 -21 -6 -38 22 -16 20 -145 -3 -158 -29 -16 -12 -27 41 -27 52 0 73 14 40 26 -11 5 -15 22 -15 69 0 84 5 95 45 95 38 0 45 -14 45 -102 0 -48 -3 -58 -20 -63 -39 -12 -19 -25 40 -25 59 0 83 16 40 27 -18 5 -20 14 -20 73 0 76 11 93 57 88 28 -3 28 -4 31 -77 2 -59 0 -76 -13 -83 -30 -17 -14 -28 40 -28 53 0 70 11 41 27 -10 6 -15 34 -18 91 -3 69 -7 86 -23 98 -24 18 -53 18 -88 -1 -25 -13 -31 -13 -53 2 -24 16 -48 13 -111 -13 -7 -3 -13 1 -13 10 0 9 -3 15 -7 15 -5 -1 -18 -4 -30 -6z"/>
    <path d="M2111 1429 c-73 -77 -81 -89 -61 -89 16 0 38 16 66 48 l42 47 13 -27 c11 -25 17 -28 65 -28 l54 0 -40 62 c-22 33 -40 65 -40 70 0 17 -18 3 -99 -83z"/>
  </g>
</svg>
