<svg id="Layer_1" data-name="Layer 1" xmlns="http://www.w3.org/2000/svg" viewBox="0 0 512 512"><defs><style>.cls-1{fill:#ed1c24;}.cls-2{fill:#368597;}.cls-3{fill:#aa2533;}.cls-4{fill:#275961;}</style></defs><polygon class="cls-1" points="411.92 226.19 390.24 249.07 378.49 261.47 375.2 256.15 361.75 234.37 381.12 234.31 386.95 243.75 403.59 226.19 411.92 226.19"/><polygon class="cls-2" points="358.48 287.06 380.17 264.18 391.92 251.78 395.2 257.1 408.66 278.88 389.29 278.95 383.45 269.5 366.81 287.06 358.48 287.06"/><polygon class="cls-3" points="386.95 243.75 375.2 256.15 383.57 238.29 386.95 243.75"/><polygon class="cls-4" points="383.45 269.5 395.2 257.1 386.88 275.04 383.45 269.5"/><path class="cls-2" d="M100.17,283.7a8.16,8.16,0,0,1,1.79-1.21,18.58,18.58,0,0,1,2-.85,13.32,13.32,0,0,1,2.24-.54v-49c-.78-.18-1.53-.39-2.24-.62a20.9,20.9,0,0,1-2-.85,8.53,8.53,0,0,1-1.79-1.21l-.09-3.05q4.38.18,6.8.23c1.61,0,3.13,0,4.57,0s2.72,0,4.25,0,3.59-.11,6.22-.23l-.09,3.05a6.47,6.47,0,0,1-1.75,1.21c-.69.32-1.36.61-2,.85s-1.43.44-2.15.62v19.33h26.49V232.15c-.72-.18-1.43-.39-2.15-.62a12.44,12.44,0,0,1-2-.76,8.14,8.14,0,0,1-1.84-1.21v-3.14q4.38.18,6.8.23c1.61,0,3.16,0,4.66,0,1.25,0,2.64,0,4.16,0s3.59-.11,6.22-.23v3.14a8.14,8.14,0,0,1-1.84,1.21,14.63,14.63,0,0,1-1.92.76c-.78.23-1.52.44-2.24.62v49c.72.18,1.46.39,2.24.63a11,11,0,0,1,1.92.8,9.05,9.05,0,0,1,1.84,1.26v3q-3.94-.09-6.27-.18t-4.29-.09c-1.43,0-3,0-4.57.05s-3.84.1-6.71.22V283.7a7.82,7.82,0,0,1,1.84-1.21,11.57,11.57,0,0,1,2-.76c.72-.24,1.43-.45,2.15-.63V258.19H115.92V281.1a14.09,14.09,0,0,1,2.15.54c.65.24,1.32.52,2,.85a6.25,6.25,0,0,1,1.75,1.21l.09,3.13q-3.94-.09-6.27-.18t-4.29-.09c-1.44,0-3,0-4.57.05s-3.85.1-6.71.22Z"/><path class="cls-2" d="M160.69,274.75a8.77,8.77,0,0,1,1.12-3.76,9.86,9.86,0,0,1,2.37-2.77,12.89,12.89,0,0,1,3.27-1.93,25.49,25.49,0,0,1,3.71-1.21c1.43-.3,2.64-.53,3.62-.71l3.81-.72a14.91,14.91,0,0,1,1.79-.36,12.3,12.3,0,0,0,2.28-.58,6.46,6.46,0,0,0,1.92-1.07,2.26,2.26,0,0,0,.81-1.84v-4.47c0-.84,0-1.61-.09-2.33a3.4,3.4,0,0,0-.63-1.79,5.53,5.53,0,0,0-3-1.65,17.23,17.23,0,0,0-4-.5,4.68,4.68,0,0,0-.67.05,4.68,4.68,0,0,1-.67,0l-2,.35c-.69.12-1.27.24-1.75.36l-1.79,4.48c-.6,1.25-1.25,1.87-2,1.87a2.1,2.1,0,0,1-.58-.09,5.75,5.75,0,0,1-.76-.26l-4.47-1.79-.9-6.27a21.54,21.54,0,0,1,3.85-2q2.06-.71,5-1.47a34.64,34.64,0,0,1,7.07-.94c.48,0,.92,0,1.34-.05s.87,0,1.34,0h.54a15.62,15.62,0,0,1,8.73,2.37q3.61,2.37,4.43,7.92a15.27,15.27,0,0,1,.17,2.46v19.55a10.93,10.93,0,0,0,.63,3.67,29.27,29.27,0,0,0,1.34,3.22,15.46,15.46,0,0,0,2,3.13,10.36,10.36,0,0,1-1.61.9,11.52,11.52,0,0,1-1.52.63,4.76,4.76,0,0,1-1.52.26,2.42,2.42,0,0,1-1.43-.44l-5.28-3.85a28.24,28.24,0,0,1-6.45,3.49A20.07,20.07,0,0,1,173.4,288a24.06,24.06,0,0,1-5.37-.71,8.79,8.79,0,0,1-4-1.88,9.35,9.35,0,0,1-2.33-3.09,12.24,12.24,0,0,1-1-3.71A15,15,0,0,1,160.69,274.75Zm12,6.62a8.8,8.8,0,0,0,3.4.63,10.69,10.69,0,0,0,2.42-.27,10,10,0,0,0,2-.45,14.51,14.51,0,0,0,2.15-.89,6.85,6.85,0,0,0,1.79-1.35,3.51,3.51,0,0,0,.94-1.79V268a24.43,24.43,0,0,1-3.09.85c-1,.21-2.1.46-3.18.76a33.84,33.84,0,0,0-6.89,2.41,4.3,4.3,0,0,0-1.79,1.84,6,6,0,0,0-.76,2.77,5.3,5.3,0,0,0,.67,2.78A4.8,4.8,0,0,0,172.68,281.37Z"/><path class="cls-2" d="M249.15,286.83a45.09,45.09,0,0,0-5-.27c-.84,0-1.7,0-2.6.05s-1.91.07-3,.13a7.54,7.54,0,0,1-1,.09h-.67a1.79,1.79,0,0,1-1.3-.41,10.72,10.72,0,0,1-1.2-1.65l-12.89-18-4.3,3.85L217,281.1c.77.18,1.52.39,2.23.63a11.57,11.57,0,0,1,2,.76A6.25,6.25,0,0,1,223,283.7l.09,3.13c-1.43-.06-2.68-.11-3.76-.14l-2.91-.08c-.86,0-1.64-.05-2.32-.05h-2c-1.19,0-2.53,0-4,.05s-3.52.1-6.09.22v-3a9.05,9.05,0,0,1,1.84-1.26,9.78,9.78,0,0,1,2-.8c.72-.24,1.43-.45,2.15-.63V235.73a3.53,3.53,0,0,0-.76-2.33,4.76,4.76,0,0,0-1.93-1.34,10.9,10.9,0,0,0-2.5-.62,18.42,18.42,0,0,0-2.42-.18l-.09-6q1.88-.09,3.18-.18l2.37-.18q1.08-.09,2.19-.27c.75-.11,1.66-.26,2.73-.44A7.51,7.51,0,0,1,212,224a2.88,2.88,0,0,1,1.26.22,2.15,2.15,0,0,1,.71.58l2,2a4.05,4.05,0,0,1,1.08,1.43,11.35,11.35,0,0,1,.08,1.62v33.55L232.68,249a10.73,10.73,0,0,1-1.65-.58,9.38,9.38,0,0,1-3-2l-.09-3.13q3.94.09,5.73.18c1.19.06,2.18.09,3,.09H238c.45,0,1,0,1.7-.05l2.46-.09,3.58-.13-.09,3.13a7.57,7.57,0,0,1-1.57,1.21,10.49,10.49,0,0,1-1.56.76,16.08,16.08,0,0,1-1.61.62l-14,12.89,12.44,14a18.54,18.54,0,0,0,3.62,3.8,18,18,0,0,0,3.09,1.93,6.68,6.68,0,0,0,2.86.71Z"/><path class="cls-2" d="M276.29,286.83l-3.76-.14-2.86-.08c-.84,0-1.6-.05-2.29-.05h-2.1c-1.19,0-2.52,0-4,.05s-3.51.1-6.13.22v-3a9.26,9.26,0,0,1,1.83-1.26,10.09,10.09,0,0,1,2-.8c.71-.24,1.43-.45,2.14-.63V254.88a3.48,3.48,0,0,0-.76-2.33,4.73,4.73,0,0,0-1.92-1.34,11,11,0,0,0-2.51-.62,18.28,18.28,0,0,0-2.41-.18l-.09-6.09c1.25-.06,2.31-.12,3.17-.18L259,244c.71-.05,1.44-.13,2.19-.22s1.62-.22,2.64-.4l.76-.14a4,4,0,0,1,.58,0,2.8,2.8,0,0,1,1.25.22,2.09,2.09,0,0,1,.72.58l2,2a3.85,3.85,0,0,1,1.07,1.43,8.89,8.89,0,0,1,.09,1.53V281.1c.78.18,1.52.39,2.24.63a11.57,11.57,0,0,1,2,.76,6.25,6.25,0,0,1,1.75,1.21Z"/><path class="cls-2" d="M354.59,286.83c-2.68-.12-4.76-.2-6.22-.22s-2.79-.05-4-.05h-1.88c-.66,0-1.39,0-2.19.05l-2.77.08c-1.05,0-2.26.08-3.63.14V283.7a7.82,7.82,0,0,1,1.84-1.21,18.2,18.2,0,0,1,1.92-.81c.6-.21,1.07-.36,1.43-.45s.48-.13.36-.13l.09-16.37q0-3.23-.09-6a18.63,18.63,0,0,0-.72-4.83,6.65,6.65,0,0,0-2.06-3.27,6.43,6.43,0,0,0-4-1.3,20.59,20.59,0,0,0-4.3.41,7.12,7.12,0,0,0-3.13,1.43,6.24,6.24,0,0,0-1.88,2.77,12.94,12.94,0,0,0-.62,4.34V281.1c.77.18,1.52.39,2.23.63a12,12,0,0,1,2,.76,6.35,6.35,0,0,1,1.74,1.21v3.13c-2.74-.12-4.86-.2-6.35-.22s-2.87-.05-4.12-.05-2.64,0-4.16.09-3.68.12-6.49.18V283.7a7.82,7.82,0,0,1,1.84-1.21,11.57,11.57,0,0,1,2-.76c.72-.24,1.43-.45,2.15-.63l-.09-16.37q-.09-3.14-.14-5.91a18.09,18.09,0,0,0-.67-4.88,7,7,0,0,0-2-3.31,6,6,0,0,0-3.93-1.3,20.52,20.52,0,0,0-4.3.41,7.07,7.07,0,0,0-3.13,1.43,6.16,6.16,0,0,0-1.88,2.77,12.92,12.92,0,0,0-.63,4.34V281.1c.78.18,1.53.39,2.24.63a11.57,11.57,0,0,1,2,.76,6.25,6.25,0,0,1,1.75,1.21v3.13c-2.68-.12-4.77-.2-6.26-.22s-2.9-.05-4.21-.05h-1.92c-.69,0-1.45,0-2.29.05l-2.82.08c-1,0-2.25.08-3.62.14V283.7a10.53,10.53,0,0,1,1.88-1.21,10.64,10.64,0,0,1,2-.76c.72-.24,1.43-.45,2.15-.63l.08-26.31a3.78,3.78,0,0,0-.84-2.68,5.93,5.93,0,0,0-1.84-1.35,7.12,7.12,0,0,0-2.77-.53v-6.09c1.25-.06,2.5-.14,3.76-.27s2.92-.32,5-.62a1.59,1.59,0,0,1,1.7,1.07l1.61,4.57,2.77-1.75c.72-.45,1.37-.83,2-1.16a16.11,16.11,0,0,1,1.79-.85c.6-.24,1.37-.51,2.33-.81a36.12,36.12,0,0,1,3.8-1,18.75,18.75,0,0,1,3.62-.36,14.61,14.61,0,0,1,6,1.25,9,9,0,0,1,4.34,4.12,52.52,52.52,0,0,1,7.47-3.8,21.14,21.14,0,0,1,8.18-1.57,14.13,14.13,0,0,1,6.27,1.39,8.87,8.87,0,0,1,4.3,4.79,12,12,0,0,1,.93,3.93c.09,1.37.2,2.75.32,4.12s.09,2.5.09,3.76V281.1c.77.18,1.52.39,2.23.63a10.38,10.38,0,0,1,2,.76,6.45,6.45,0,0,1,1.7,1.21Z"/><path class="cls-1" d="M259.37,226.42v10.65a38,38,0,0,0,11.1-1.34l-.1-8.56a2.54,2.54,0,0,0-3.21-2S265.39,226,259.37,226.42Z"/></svg>